<svg width="20" height="20" viewBox="0 0 20 20" fill="none" xmlns="http://www.w3.org/2000/svg">
<g id="file">
<path id="Combo shape" fill-rule="evenodd" clip-rule="evenodd" d="M0 14.5V3C0 1.34315 1.34315 0 3 0H13C14.6569 0 16 1.34315 16 3V14.5H7.3C6.85817 14.5 6.5 14.8582 6.5 15.3C6.5 17.0673 5.0425 18.5 3.27519 18.5C1.48027 18.5 0 17.0449 0 15.25V14.5ZM4 4.25C3.58579 4.25 3.25 4.58579 3.25 5C3.25 5.41421 3.58579 5.75 4 5.75H12C12.4142 5.75 12.75 5.41421 12.75 5C12.75 4.58579 12.4142 4.25 12 4.25H4ZM3.25 10C3.25 9.58579 3.58579 9.25 4 9.25H8C8.41421 9.25 8.75 9.58579 8.75 10C8.75 10.4142 8.41421 10.75 8 10.75H4C3.58579 10.75 3.25 10.4142 3.25 10ZM19.8766 16.9899C19.4361 18.7202 17.8675 20 16 20H4C5.86748 20 7.43606 18.7202 7.87657 16.9899C8.01283 16.4547 8.44772 16 9 16H19C19.5523 16 20.0128 16.4547 19.8766 16.9899Z" fill="white"/>
</g>
</svg>
