<svg width="30" height="29" viewBox="0 0 30 29" fill="none" xmlns="http://www.w3.org/2000/svg">
<g id="ph:meta-logo-bold">
<path id="Vector" d="M27.9601 16.9519C27.9601 18.8359 27.5831 20.4571 26.8693 21.6408C25.953 23.1612 24.5288 23.9656 22.751 23.9656C19.3577 23.9656 17.0765 19.7086 14.6621 15.2021C12.9079 11.9285 10.7307 7.85502 8.94065 7.85502C8.07806 7.85502 7.02081 8.90333 6.18171 10.5905C5.22192 12.5752 4.7123 14.7474 4.68925 16.9519C4.68925 18.328 4.93986 19.5005 5.39409 20.2546C5.81587 20.9549 6.39428 21.2805 7.21324 21.2805C8.75158 21.2805 10.6401 18.036 11.261 16.9743C11.4404 16.6666 11.7346 16.4427 12.0791 16.352C12.4235 16.2612 12.7898 16.311 13.0975 16.4904C13.4052 16.6698 13.6291 16.964 13.7198 17.3084C13.8106 17.6528 13.7608 18.0192 13.5814 18.3269C12.5846 20.0364 11.732 21.2358 10.8963 22.1062C9.69584 23.357 8.49314 23.9656 7.21324 23.9656C5.43548 23.9656 4.01126 23.1612 3.09497 21.6408C2.38118 20.4571 2.00415 18.8359 2.00415 16.9519C2.00415 12.0326 4.64226 5.16992 8.94065 5.16992C12.3339 5.16992 14.6152 9.42692 17.0295 13.9334C18.786 17.207 20.9643 21.2805 22.751 21.2805C23.57 21.2805 24.1484 20.9549 24.5702 20.2546C25.0244 19.5005 25.275 18.328 25.275 16.9519C25.2523 14.7475 24.7431 12.5753 23.7836 10.5905C22.9446 8.90333 21.8873 7.85502 21.0236 7.85502C20.3836 7.85502 19.6128 8.41441 18.7312 9.51419C18.5086 9.79221 18.1848 9.97045 17.8308 10.0097C17.4769 10.0489 17.1218 9.94594 16.8438 9.7234C16.5658 9.50086 16.3875 9.17699 16.3483 8.82303C16.3091 8.46907 16.412 8.11403 16.6346 7.836C18.0722 6.04258 19.5076 5.16992 21.0236 5.16992C22.9983 5.16992 24.8275 6.67022 26.1868 9.39448C27.3271 11.7524 27.9326 14.3329 27.9601 16.9519Z" fill="black"/>
</g>
</svg>
